<?xml version="1.0" standalone="no"?>
<!DOCTYPE svg PUBLIC "-//W3C//DTD SVG 20010904//EN"
 "http://www.w3.org/TR/2001/REC-SVG-20010904/DTD/svg10.dtd">
<svg version="1.0" xmlns="http://www.w3.org/2000/svg"
 width="209.000000pt" height="155.000000pt" viewBox="0 0 209.000000 155.000000"
 preserveAspectRatio="xMidYMid meet">

<g transform="translate(0.000000,155.000000) scale(0.100000,-0.100000)"
fill="#000000" stroke="none">
<path d="M995 1279 c-73 -12 -132 -36 -207 -86 -270 -178 -306 -566 -74 -799
254 -254 677 -184 835 137 102 208 65 437 -98 600 -123 122 -288 176 -456 148z
m178 -75 c18 -9 58 -35 89 -57 56 -39 59 -39 120 -33 60 7 64 6 89 -21 79 -84
121 -199 121 -328 0 -462 -548 -687 -876 -359 -153 153 -188 388 -89 591 25
51 33 58 105 94 43 22 78 37 78 34 0 -2 -9 -19 -20 -37 -32 -52 -26 -60 26
-38 62 27 70 25 41 -10 -14 -16 -31 -46 -37 -67 -6 -21 -21 -58 -33 -83 -17
-35 -22 -64 -22 -130 0 -73 4 -93 28 -142 110 -223 435 -238 557 -26 62 110
62 231 -1 332 -17 28 -34 72 -38 98 -4 25 -15 58 -24 72 -19 28 -88 72 -127
80 -90 18 -87 16 -66 32 25 18 40 18 79 -2z m43 -174 c72 -35 106 -72 143
-150 67 -145 3 -321 -143 -398 -44 -23 -64 -27 -136 -27 -100 0 -154 21 -218
86 -136 136 -115 360 45 473 90 63 202 69 309 16z"/>
<path d="M692 1038 c-14 -14 -16 -35 -3 -43 12 -7 41 22 41 41 0 17 -22 18
-38 2z m18 -22 c0 -3 -4 -8 -10 -11 -5 -3 -10 -1 -10 4 0 6 5 11 10 11 6 0 10
-2 10 -4z"/>
<path d="M750 975 c-13 -16 -7 -45 9 -45 11 0 31 32 31 49 0 16 -26 13 -40 -4z
m20 -19 c0 -3 -4 -8 -10 -11 -5 -3 -10 -1 -10 4 0 6 5 11 10 11 6 0 10 -2 10
-4z"/>
<path d="M663 944 c-4 -11 -14 -25 -22 -32 -14 -12 -14 -13 1 -8 11 3 20 -3
27 -22 11 -27 11 -27 6 5 -3 22 0 35 11 41 14 8 14 10 0 21 -13 11 -17 10 -23
-5z"/>
<path d="M875 939 c-22 -10 -34 -19 -27 -19 16 0 82 27 82 34 0 9 -12 6 -55
-15z"/>
<path d="M831 876 c2 -2 15 -9 29 -15 24 -11 24 -11 6 3 -16 13 -49 24 -35 12z"/>
<path d="M830 810 c30 -38 49 -54 34 -27 -20 33 -49 67 -57 67 -5 0 6 -18 23
-40z"/>
<path d="M570 1173 c0 -12 35 -101 43 -109 4 -4 -3 21 -14 54 -19 56 -29 75
-29 55z"/>
<path d="M510 1076 c0 -7 72 -47 77 -43 2 3 -12 14 -32 26 -36 21 -45 24 -45
17z"/>
<path d="M478 983 c17 -2 47 -2 65 0 17 2 3 4 -33 4 -36 0 -50 -2 -32 -4z"/>
</g>
</svg>
