<svg xmlns="http://www.w3.org/2000/svg" xmlns:xlink="http://www.w3.org/1999/xlink" version="1.1" id="Layer_1" x="0px" y="0px" width="100%" viewBox="0 0 1024 1024" enable-background="new 0 0 1024 1024" xml:space="preserve" style="
">
<path fill="#4d5725" opacity="1.000000" stroke="none" d=" M343.068237,618.181335   C320.876495,628.659973 297.825104,633.518799 273.707520,634.465820   C235.632629,635.960938 201.588730,625.393677 172.278412,601.018372   C145.888687,579.071960 130.695221,550.369141 123.700714,517.017212   C121.158562,504.895538 119.870964,492.590607 120.180962,480.328613   C121.554657,425.991241 143.248611,381.831451 187.610596,349.637970   C210.750656,332.845215 236.929626,323.134766 265.197510,320.109253   C298.031372,316.595032 329.697144,321.558960 358.973083,337.651978   C369.116211,343.227692 378.242004,350.311981 383.655182,361.030426   C387.227295,368.103546 388.293732,375.266296 385.645721,383.176788   C376.342957,410.967529 367.431152,438.889130 358.368988,466.760437   C358.060120,467.710419 357.738953,468.656647 357.407318,469.598938   C356.767761,471.416107 355.973022,473.325134 353.573639,472.300507   C351.376099,471.362061 352.392792,469.514771 352.955780,467.988159   C356.599487,458.107635 359.106689,448.023163 359.956238,437.449768   C361.591522,417.097534 357.341766,398.065613 347.838165,380.169800   C334.338257,354.748779 313.652405,338.285248 285.040344,334.059082   C253.249985,329.363434 222.414612,333.124359 195.177170,351.836029   C175.036987,365.671997 164.599442,386.083405 161.520050,409.785095   C153.887802,468.529755 167.527634,522.039307 204.137070,568.867371   C221.082596,590.542847 242.017319,607.690247 268.643646,616.824707   C281.230621,621.142761 294.076385,621.244568 307.109467,620.174927   C318.094788,619.273376 328.917358,617.762756 339.209198,613.573242   C353.017059,607.952454 362.583679,598.522156 366.167328,583.670593   C367.700500,577.316711 366.180511,571.017883 365.490204,564.807373   C363.857574,550.119324 361.556641,535.504333 359.453979,520.870178   C358.149353,511.790253 352.412964,506.059296 344.711151,501.942719   C332.281342,495.299133 318.597290,493.261841 304.915314,491.299835   C299.146149,490.472565 293.333252,489.954254 287.548279,489.231018   C285.787476,489.010864 283.328308,489.032074 283.627747,486.488586   C283.931458,483.908752 286.388489,484.625397 288.109772,484.728699   C307.080078,485.867126 326.067108,486.000946 345.060791,485.738403   C360.714539,485.522034 376.304688,484.258331 391.889954,482.885712   C393.992859,482.700500 395.096130,481.868774 395.948914,479.921326   C412.342529,442.484070 442.882751,427.259430 481.859772,425.749908   C496.117676,425.197723 510.173767,426.829620 523.287720,433.122040   C540.189758,441.232147 548.916687,455.752350 554.292847,472.874939   C558.790100,487.198090 561.128601,502.012787 564.335571,516.631836   C569.856384,541.798462 575.511353,566.935791 581.166260,592.072754   C582.199219,596.664673 583.962952,601.000793 587.106140,604.597412   C591.263184,609.354126 596.524353,609.593811 601.035278,605.161926   C605.034180,601.233093 607.618164,596.406921 609.331421,591.087036   C610.054565,588.841675 609.679749,586.955872 608.273865,585.009033   C601.376526,575.457397 598.850464,564.517029 598.827698,552.975220   C598.735962,506.477203 598.787903,459.978912 598.747314,413.480743   C598.738159,402.995911 597.060669,401.420837 586.487183,401.396301   C583.320740,401.388977 580.153870,401.380554 576.988403,401.313721   C575.676880,401.286011 574.233582,401.343658 573.582581,398.313446   C583.792542,395.797089 594.102295,392.950775 603.279114,387.339478   C612.535583,381.679443 619.916199,374.156708 626.114990,365.297607   C632.301331,356.456177 634.483582,345.807587 638.527039,336.059967   C641.343079,337.196198 641.265564,338.779205 641.283691,340.262054   C641.456482,354.426910 640.347351,368.544678 639.697632,382.679413   C639.690063,382.844421 639.635071,383.006683 639.612732,383.171692   C638.014587,394.981171 640.255005,397.629822 652.081848,397.682281   C663.414551,397.732574 674.747864,397.656433 686.080444,397.722290   C687.786499,397.732208 689.767761,397.048492 691.315430,399.054993   C690.595154,401.998871 688.109314,401.301422 686.162292,401.312164   C674.663208,401.375610 663.163330,401.310394 651.664124,401.368622   C641.781311,401.418640 639.267212,403.943390 639.265625,413.806641   C639.258667,458.138245 639.308044,502.469879 639.260742,546.801392   C639.253601,553.481384 640.821350,559.687195 644.166687,565.385315   C649.387817,574.278809 658.292725,577.604065 668.185913,574.694275   C679.651733,571.322083 687.641296,563.469116 694.611084,554.305237   C696.322510,552.055115 695.938965,549.167725 696.364075,546.602844   C704.377563,498.244202 733.029785,468.393341 779.652344,456.294952   C815.812622,446.911499 849.902588,452.727020 879.130249,477.365570   C899.210693,494.293182 909.217041,516.589966 911.547913,542.723816   C913.883484,568.910278 907.789856,592.718140 892.538086,613.967102   C874.585754,638.978638 849.952454,653.801331 819.788757,659.282288   C792.710022,664.202759 766.519409,661.318787 742.573242,647.159424   C715.609314,631.215515 700.457703,607.128052 696.628601,575.989075   C696.107544,571.752258 695.586670,567.515503 695.038513,563.057007   C692.162354,563.453979 691.268982,565.606079 689.978882,567.184387   C680.388306,578.916687 669.571472,589.182007 655.534119,595.440674   C643.345581,600.874939 631.058044,601.842896 619.108948,594.816956   C615.280090,592.565674 613.962585,593.938660 612.696167,597.509460   C608.694153,608.793396 603.329834,619.218018 593.427734,626.661438   C575.843872,639.879211 556.802917,635.474976 546.750305,615.836365   C542.065613,606.684387 539.852661,596.773193 537.633179,586.853638   C537.102234,584.480530 536.844055,581.983459 535.235718,579.949463   C532.919128,580.856445 532.830750,582.919861 532.116333,584.484863   C521.639648,607.436218 505.571960,624.828186 480.687958,631.298218   C452.629791,638.593628 427.123627,633.076294 406.603912,611.255005   C399.620911,603.829041 395.583099,594.662842 393.055969,584.833069   C392.725830,583.548828 392.368439,582.270142 391.967987,581.006592   C391.880646,580.731018 391.554321,580.531128 390.894501,579.815002   C377.637238,595.820435 361.877045,608.643982 343.068237,618.181335  M871.853943,551.592773   C865.777527,530.538879 856.376953,511.106445 842.219910,494.337006   C826.091614,475.232513 807.540955,460.650757 780.141968,464.266785   C758.618469,467.107391 742.510132,476.867462 734.536011,498.432404   C729.543152,511.934692 728.974670,525.984802 730.802002,539.834229   C734.784363,570.018066 746.647522,597.151062 766.054321,620.675171   C780.367615,638.025024 796.841858,651.150574 821.538818,649.909912   C850.118530,648.474304 871.389404,630.634827 875.757263,602.690247   C878.423340,585.633057 876.741089,568.887817 871.853943,551.592773  M395.235107,517.527588   C395.648743,528.418274 393.601410,539.281616 394.558960,551.261169   C407.492493,530.379272 427.241364,522.642639 449.017181,519.183655   C470.898010,515.707886 492.879913,517.643188 514.750977,520.183167   C521.562317,520.974121 522.868652,519.890259 521.406189,513.045654   C518.867798,501.165497 516.444031,489.253479 513.550049,477.458405   C509.498779,460.946564 501.421722,447.514923 484.188477,441.756073   C475.489594,438.849121 466.467621,438.711761 457.496643,439.394989   C434.452271,441.149963 415.748169,450.713501 404.461914,471.562531   C396.937927,485.461487 396.000000,501.066895 395.235107,517.527588  M516.345215,529.209412   C497.196289,526.223816 478.019318,524.810486 458.659607,527.256653   C441.978973,529.364136 431.811798,538.252991 429.580597,553.878296   C428.591797,560.802979 428.877106,567.857788 430.429657,574.724670   C434.024445,590.624512 442.267944,602.782776 458.217712,608.625793   C468.841583,612.517639 479.777130,612.586975 490.738861,611.057007   C507.285248,608.747620 518.993958,599.821289 525.067688,584.166687   C530.936890,569.039124 531.976196,553.749451 527.200073,537.870239   C525.437988,532.011780 522.880432,529.452820 516.345215,529.209412  z" style=""></path>
</svg>